<?xml version="1.0" encoding="UTF-8"?>
<!DOCTYPE svg PUBLIC "-//W3C//DTD SVG 1.1//EN" "http://www.w3.org/Graphics/SVG/1.1/DTD/svg11.dtd">
<svg xmlns="http://www.w3.org/2000/svg" version="1.1" width="1200px" height="1200px" style="shape-rendering:geometricPrecision; text-rendering:geometricPrecision; image-rendering:optimizeQuality; fill-rule:evenodd; clip-rule:evenodd" xmlns:xlink="http://www.w3.org/1999/xlink">
<g><path style="opacity:0.963" fill="#fe0808" d="M 366.5,397.5 C 388.844,397.479 411.178,397.979 433.5,399C 437.951,399.13 442.284,399.796 446.5,401C 394.166,401.452 342.166,405.786 290.5,414C 264.509,417.997 239.842,425.997 216.5,438C 205.371,443.793 197.871,452.626 194,464.5C 192.525,492.207 201.192,516.207 220,536.5C 239.134,555.972 260.8,571.972 285,584.5C 292.538,547.309 299.371,509.976 305.5,472.5C 321.185,472.414 336.851,472.914 352.5,474C 343.668,530.495 334.668,586.995 325.5,643.5C 275.104,617.365 232.604,581.699 198,536.5C 186.186,519.531 178.186,500.864 174,480.5C 172.204,469.889 174.871,460.555 182,452.5C 190.482,443.696 198.815,436.029 207,429.5C 185.262,435.529 166.262,446.196 150,461.5C 141.267,474.158 138.267,488.158 141,503.5C 144.753,525.005 152.419,545.005 164,563.5C 186.27,598.613 213.103,629.947 244.5,657.5C 239.833,657.833 235.167,658.167 230.5,658.5C 225.059,658.618 219.726,658.118 214.5,657C 191.652,635.502 171.818,611.669 155,585.5C 150.067,609.763 145.567,634.097 141.5,658.5C 125.486,658.833 109.486,658.499 93.5,657.5C 103.231,594.552 112.731,531.552 122,468.5C 123.53,463.108 125.863,458.108 129,453.5C 139.232,442.274 151.399,433.774 165.5,428C 202.315,414.436 240.315,406.103 279.5,403C 308.607,400.347 337.607,398.514 366.5,397.5 Z"/></g>
<g><path style="opacity:0.948" fill="#000d3c" d="M 794.5,406.5 C 828.565,407.432 862.565,409.265 896.5,412C 925.07,420.231 945.237,438.065 957,465.5C 957.494,467.134 957.66,468.801 957.5,470.5C 949.721,470.932 942.054,470.432 934.5,469C 926.395,454.895 915.062,444.229 900.5,437C 897.5,436 894.5,435 891.5,434C 866.885,431.282 842.218,429.115 817.5,427.5C 813.193,426.809 809.693,428.143 807,431.5C 805.275,434.674 803.942,438.007 803,441.5C 786.494,500.859 769.994,560.192 753.5,619.5C 752.167,619.5 750.833,619.5 749.5,619.5C 760.771,551.539 771.938,483.539 783,415.5C 785.542,410.785 789.376,407.785 794.5,406.5 Z"/></g>
<g><path style="opacity:0.938" fill="#000d3c" d="M 720.5,423.5 C 736.833,423.5 753.167,423.5 769.5,423.5C 768.327,433.538 766.827,443.538 765,453.5C 764.5,454 764,454.5 763.5,455C 648.15,454.811 532.816,453.145 417.5,450C 417.167,449.667 416.833,449.333 416.5,449C 480.499,446.954 544.499,444.954 608.5,443C 516.84,441.038 425.174,439.372 333.5,438C 320.678,437.981 308.011,437.314 295.5,436C 437.296,431.071 578.963,426.904 720.5,423.5 Z"/></g>
<g><path style="opacity:0.977" fill="#fe0808" d="M 447.5,465.5 C 478.735,462.012 507.735,468.345 534.5,484.5C 531.169,492.658 528.336,500.992 526,509.5C 523.96,518.236 523.126,526.902 523.5,535.5C 504.46,514.759 480.793,505.925 452.5,509C 416.175,515.08 400.342,536.58 405,573.5C 409.037,595.871 422.204,609.371 444.5,614C 475.251,619.078 502.084,611.245 525,590.5C 524.582,595.465 524.582,600.465 525,605.5C 526.863,616.598 528.863,627.598 531,638.5C 518.802,648.13 504.969,654.297 489.5,657C 458.441,663.894 428.441,660.894 399.5,648C 377.427,634.568 363.927,615.068 359,589.5C 348.05,519.012 377.55,477.678 447.5,465.5 Z"/></g>
<g><path style="opacity:0.981" fill="#fe0808" d="M 552.5,468.5 C 588.166,469.728 623.833,469.728 659.5,468.5C 682.837,465.331 702.337,472.331 718,489.5C 732.591,512.675 733.258,536.342 720,560.5C 712.343,571.653 702.176,579.653 689.5,584.5C 702.188,605.881 716.355,626.214 732,645.5C 735.534,649.369 739.367,652.869 743.5,656C 722.169,656.5 700.836,656.667 679.5,656.5C 679.628,654.345 679.128,652.345 678,650.5C 665.117,630.564 651.617,611.064 637.5,592C 625.171,591.5 612.838,591.333 600.5,591.5C 599.024,613.218 599.358,634.885 601.5,656.5C 584.83,656.667 568.163,656.5 551.5,656C 552.274,653.595 552.774,651.095 553,648.5C 555.077,588.485 554.91,528.485 552.5,468.5 Z M 599.5,510.5 C 620.523,510.174 641.523,510.674 662.5,512C 675.284,514.74 680.784,522.573 679,535.5C 676.518,541.828 672.018,545.994 665.5,548C 643.512,549.81 621.512,549.977 599.5,548.5C 599.5,535.833 599.5,523.167 599.5,510.5 Z"/></g>
<g><path style="opacity:0.969" fill="#000d3c" d="M 806.5,478.5 C 855.834,478.333 905.168,478.5 954.5,479C 969.051,477.618 980.885,482.451 990,493.5C 991.608,496.382 992.941,499.382 994,502.5C 996.371,520.093 998.037,537.76 999,555.5C 999.5,556 1000,556.5 1000.5,557C 1029.83,562.333 1059.16,567.666 1088.5,573C 1103.33,577.167 1112.83,586.667 1117,601.5C 1119.31,610.042 1120.98,618.709 1122,627.5C 1122.5,647.831 1122.67,668.164 1122.5,688.5C 1119.92,688.917 1117.75,688.25 1116,686.5C 1114.19,672.473 1112.19,658.473 1110,644.5C 1107.58,627.545 1100.75,612.711 1089.5,600C 1077.64,592.491 1064.64,588.157 1050.5,587C 1039.87,585.338 1029.21,584.005 1018.5,583C 974.861,580.723 931.195,579.056 887.5,578C 893.591,557.726 900.091,537.559 907,517.5C 907.75,516.874 908.584,516.374 909.5,516C 927.176,515.833 944.843,515.333 962.5,514.5C 959.397,506.601 953.73,501.434 945.5,499C 899.364,492.548 853.03,488.048 806.5,485.5C 806.5,483.167 806.5,480.833 806.5,478.5 Z"/></g>
<g><path style="opacity:0.793" fill="#fe0808" d="M 156.5,486.5 C 157.748,487.334 158.415,488.667 158.5,490.5C 158.811,499.414 161.145,507.747 165.5,515.5C 164.327,520.032 161.66,521.365 157.5,519.5C 156.787,517.224 156.287,514.891 156,512.5C 155.52,503.823 155.687,495.156 156.5,486.5 Z"/></g>
<g><path style="opacity:0.869" fill="#fe0808" d="M 169.5,528.5 C 170.496,528.414 171.329,528.748 172,529.5C 174.968,534.602 177.801,539.769 180.5,545C 178.022,547.478 175.522,549.978 173,552.5C 169.699,546.731 166.532,540.897 163.5,535C 165.273,532.616 167.273,530.449 169.5,528.5 Z"/></g>
<g><path style="opacity:0.862" fill="#fe0808" d="M 186.5,555.5 C 187.239,555.369 187.906,555.536 188.5,556C 193.066,560.476 197.399,565.143 201.5,570C 199.126,572.039 197.126,574.372 195.5,577C 194.365,577.749 193.365,577.583 192.5,576.5C 188.814,572.648 185.314,568.648 182,564.5C 181.333,563.5 181.333,562.5 182,561.5C 183.332,559.34 184.832,557.34 186.5,555.5 Z"/></g>
<g><path style="opacity:0.875" fill="#fe0808" d="M 208.5,578.5 C 210.255,579.072 211.922,579.906 213.5,581C 216.708,584.377 220.042,587.544 223.5,590.5C 220.848,594.482 217.848,598.149 214.5,601.5C 209.645,597.568 204.978,593.401 200.5,589C 203.407,585.605 206.073,582.105 208.5,578.5 Z"/></g>
<g><path style="opacity:0.883" fill="#fe0808" d="M 230.5,599.5 C 231.552,599.351 232.552,599.517 233.5,600C 238.046,604.052 242.713,607.886 247.5,611.5C 244.844,615.989 241.344,619.656 237,622.5C 232.004,618.336 227.17,614.003 222.5,609.5C 225.57,606.436 228.237,603.103 230.5,599.5 Z"/></g>
<g><path style="opacity:0.892" fill="#fe0808" d="M 257.5,621.5 C 263.17,625.007 268.503,629.007 273.5,633.5C 269.526,637.138 265.526,640.805 261.5,644.5C 256.54,641.208 252.207,637.208 248.5,632.5C 251.145,628.524 254.145,624.857 257.5,621.5 Z"/></g>
<g><path style="opacity:0.892" fill="#fe0808" d="M 284.5,639.5 C 292.83,644.668 300.83,650.335 308.5,656.5C 299.184,657.665 289.851,657.832 280.5,657C 277.736,656.468 275.07,655.634 272.5,654.5C 271.479,653.998 271.312,653.332 272,652.5C 276.37,648.298 280.537,643.964 284.5,639.5 Z"/></g>
<g><path style="opacity:0.97" fill="#000d3c" d="M 950.5,639.5 C 969.255,636.267 985.588,640.934 999.5,653.5C 1007.31,662.101 1011.31,672.268 1011.5,684C 1010.9,685.605 1009.9,686.938 1008.5,688C 1004.51,688.499 1000.51,688.666 996.5,688.5C 996.046,673.544 988.379,665.044 973.5,663C 961.245,660.897 949.912,663.231 939.5,670C 931.446,676.387 923.112,682.387 914.5,688C 635.167,688.5 355.834,688.667 76.5,688.5C 77.5,682.5 78.5,676.5 79.5,670.5C 352.5,670.667 625.5,670.5 898.5,670C 899.5,669.667 900.5,669.333 901.5,669C 913.978,652.674 930.312,642.84 950.5,639.5 Z"/></g>
<g><path style="opacity:0.943" fill="#001681" d="M 398.5,713.5 C 406.228,713.189 413.895,713.689 421.5,715C 426.753,716.293 431.419,718.626 435.5,722C 433.847,728.1 432.513,734.266 431.5,740.5C 421.783,731.404 410.449,728.571 397.5,732C 389.077,735.655 384.744,742.155 384.5,751.5C 385,762.015 390.333,768.515 400.5,771C 412.454,773.221 422.954,770.388 432,762.5C 432.269,768.842 433.435,775.009 435.5,781C 433.79,783.372 431.456,785.038 428.5,786C 410.184,793.313 392.851,791.647 376.5,781C 362.164,763.65 360.997,745.484 373,726.5C 380.154,719.34 388.654,715.007 398.5,713.5 Z"/></g>
<g><path style="opacity:0.944" fill="#001681" d="M 754.5,713.5 C 766.66,712.322 778.327,714.155 789.5,719C 790.081,719.893 790.415,720.893 790.5,722C 789.787,727.476 789.287,732.976 789,738.5C 779.942,731.819 769.776,729.319 758.5,731C 742.351,734.45 736.184,744.284 740,760.5C 743.896,769.211 750.729,773.544 760.5,773.5C 767.945,773.635 774.112,770.968 779,765.5C 779.494,763.866 779.66,762.199 779.5,760.5C 773.5,760.5 767.5,760.5 761.5,760.5C 761.5,754.833 761.5,749.167 761.5,743.5C 773.14,744.388 784.807,744.721 796.5,744.5C 802.615,774.538 790.448,789.871 760,790.5C 729.204,788.368 716.204,772.035 721,741.5C 726.287,725.041 737.453,715.707 754.5,713.5 Z"/></g>
<g><path style="opacity:0.942" fill="#001681" d="M 1063.5,713.5 C 1075.05,712.249 1086.05,714.082 1096.5,719C 1097.99,719.745 1098.99,720.912 1099.5,722.5C 1097.21,728.648 1095.71,734.982 1095,741.5C 1086.26,732.477 1075.76,729.31 1063.5,732C 1056.33,733.833 1051.83,738.333 1050,745.5C 1047.25,762.088 1054.25,771.088 1071,772.5C 1080.47,772.181 1088.64,768.848 1095.5,762.5C 1096.67,769.172 1097.51,775.839 1098,782.5C 1081.74,791.649 1064.91,792.816 1047.5,786C 1038.49,781.161 1032.99,773.661 1031,763.5C 1026.05,736.365 1036.89,719.699 1063.5,713.5 Z"/></g>
<g><path style="opacity:0.958" fill="#001681" d="M 79.5,714.5 C 101.177,715.382 122.844,715.382 144.5,714.5C 143.338,720.841 143.171,727.174 144,733.5C 136.587,732.519 129.087,732.186 121.5,732.5C 120.183,751.168 120.183,769.835 121.5,788.5C 114.833,788.5 108.167,788.5 101.5,788.5C 102.549,769.809 102.549,751.142 101.5,732.5C 93.8045,732.831 86.1378,732.497 78.5,731.5C 79.4544,725.896 79.7877,720.229 79.5,714.5 Z"/></g>
<g><path style="opacity:0.956" fill="#001681" d="M 172.5,714.5 C 189.15,715.195 205.816,715.361 222.5,715C 234.726,717.228 241.393,724.562 242.5,737C 241.787,747.862 236.787,756.029 227.5,761.5C 233.206,771.042 239.873,779.875 247.5,788C 239.167,788.667 230.833,788.667 222.5,788C 217.362,780.03 212.029,772.196 206.5,764.5C 201.544,763.506 196.544,763.173 191.5,763.5C 191.198,771.556 191.531,779.556 192.5,787.5C 185.866,788.497 179.2,788.83 172.5,788.5C 173.814,763.834 173.814,739.167 172.5,714.5 Z M 191.5,731.5 C 200.226,731.161 208.893,731.661 217.5,733C 224.399,738.266 223.732,742.6 215.5,746C 207.507,746.5 199.507,746.666 191.5,746.5C 191.5,741.5 191.5,736.5 191.5,731.5 Z"/></g>
<g><path style="opacity:0.949" fill="#001681" d="M 269.5,714.5 C 276.508,714.334 283.508,714.5 290.5,715C 289.342,731.426 289.176,747.926 290,764.5C 292.911,769.963 297.578,772.63 304,772.5C 311.951,772.872 316.617,769.206 318,761.5C 318.787,745.801 318.62,730.135 317.5,714.5C 324.167,714.5 330.833,714.5 337.5,714.5C 337.924,734.207 337.424,753.874 336,773.5C 332.754,782.054 326.588,787.221 317.5,789C 304.046,791.778 291.046,790.445 278.5,785C 272.123,778.544 269.29,770.71 270,761.5C 270.293,745.821 270.126,730.154 269.5,714.5 Z"/></g>
<g><path style="opacity:0.948" fill="#001681" d="M 462.5,714.5 C 469.5,714.5 476.5,714.5 483.5,714.5C 482.576,724.486 482.41,734.486 483,744.5C 492.755,735.582 501.589,725.916 509.5,715.5C 517.833,714.167 526.167,714.167 534.5,715.5C 524.678,725.489 515.012,735.656 505.5,746C 515.544,760.882 526.544,775.048 538.5,788.5C 538.167,788.833 537.833,789.167 537.5,789.5C 529.215,788.696 520.882,788.196 512.5,788C 506.621,777.738 500.121,767.905 493,758.5C 483.885,766.345 480.718,776.345 483.5,788.5C 476.468,788.83 469.468,788.497 462.5,787.5C 463.824,763.167 463.824,738.833 462.5,714.5 Z"/></g>
<g><path style="opacity:0.957" fill="#001681" d="M 562.5,714.5 C 569.2,714.17 575.866,714.503 582.5,715.5C 581.167,739.5 581.167,763.5 582.5,787.5C 575.866,788.497 569.2,788.83 562.5,788.5C 563.819,763.833 563.819,739.166 562.5,714.5 Z"/></g>
<g><path style="opacity:0.957" fill="#001681" d="M 612.5,714.5 C 619.817,715.335 627.151,715.502 634.5,715C 646.572,731.743 659.406,747.909 673,763.5C 672.741,747.181 672.575,730.847 672.5,714.5C 679.182,715.614 685.848,715.614 692.5,714.5C 691.27,739.163 691.27,763.83 692.5,788.5C 684.472,788.831 676.472,788.498 668.5,787.5C 656.429,773.686 644.596,759.686 633,745.5C 632.5,759.829 632.333,774.163 632.5,788.5C 625.833,788.5 619.167,788.5 612.5,788.5C 613.833,763.833 613.833,739.167 612.5,714.5 Z"/></g>
<g><path style="opacity:0.956" fill="#001681" d="M 873.5,714.5 C 880.508,714.334 887.508,714.5 894.5,715C 893.034,726.897 892.367,738.897 892.5,751C 892.722,763.506 893.056,776.006 893.5,788.5C 886.8,788.83 880.134,788.497 873.5,787.5C 874.824,763.167 874.824,738.833 873.5,714.5 Z"/></g>
<g><path style="opacity:0.949" fill="#001681" d="M 924.5,714.5 C 932.167,714.5 939.833,714.5 947.5,714.5C 947.608,716.783 948.441,718.783 950,720.5C 961,734.833 972,749.167 983,763.5C 983.536,747.247 983.036,731.081 981.5,715C 988.5,714.333 995.5,714.333 1002.5,715C 1001.17,739.333 1001.17,763.667 1002.5,788C 994.5,788.667 986.5,788.667 978.5,788C 967.213,773.924 956.046,759.758 945,745.5C 944.5,759.829 944.333,774.163 944.5,788.5C 937.833,788.5 931.167,788.5 924.5,788.5C 925.7,763.831 925.7,739.165 924.5,714.5 Z"/></g>
</svg>
